<?xml version="1.0" encoding="utf-8"?>
<!-- Generator: Adobe Illustrator 26.1.0, SVG Export Plug-In . SVG Version: 6.00 Build 0)  -->
<svg version="1.1" id="Camada_1" xmlns="http://www.w3.org/2000/svg" xmlns:xlink="http://www.w3.org/1999/xlink" x="0px" y="0px"
	 viewBox="0 0 81 24" style="enable-background:new 0 0 81 24;" xml:space="preserve">
<style type="text/css">
	.st0{fill:#F39200;}
	.st1{fill:#FBC682;}
	.st2{fill:#004587;}
	.st3{fill:#B38600;}
</style>
<g>
	<g>
		<g>
			<path class="st0" d="M71.62,5.57c2.34-1.11,4.8-1.57,7.12-1.47c-1.99-0.88-4.28-1.34-6.7-1.26c-1.19,0.04-2.34,0.22-3.44,0.51
				c-0.54,0.73-0.99,1.52-1.34,2.34c0.53,0.52,1.1,1,1.72,1.45C69.78,6.55,70.67,6.02,71.62,5.57"/>
			<path class="st1" d="M68.98,7.15c-0.08-0.06-0.15-0.11-0.23-0.17l0,0l0,0c-0.46-0.35-0.9-0.72-1.31-1.11
				c-0.02-0.02-0.03-0.03-0.05-0.05l0,0l-0.02-0.02l-0.02-0.02l-0.02-0.02l-0.02-0.02l-0.02-0.02c0.34-0.83,0.79-1.61,1.34-2.34
				c-0.91,0.24-1.77,0.56-2.59,0.94c0.38,0.49,0.8,0.95,1.25,1.4c-0.49,1.18-0.75,2.45-0.76,3.76C67.22,8.61,68.05,7.84,68.98,7.15
				 M67.44,5.86c-0.02-0.02-0.03-0.03-0.05-0.05"/>
			<path class="st2" d="M80.64,14.29c-0.03,0-0.06,0-0.09,0c-1.19,0-2.05-0.76-2.05-1.81v-0.02c0-1,0.86-1.79,1.97-1.79
				c0.06,0,0.12,0,0.17,0.01V9.47c-0.05,0-0.1,0-0.16,0c-1.92,0-3.41,1.02-3.73,2.45c-0.14-1.13-0.92-1.79-2.51-1.79
				c-0.07,0-0.32,0-0.39,0v1.22c0.31,0,0.74,0.06,0.94,0.16c0.28,0.15,0.43,0.4,0.43,0.74c-0.38-0.05-0.82-0.08-1.2-0.09
				c-1.49-0.04-2.26,0.44-2.44,1.21v-0.79c0-1.36-0.83-2.42-2.59-2.42c-1.61,0-2.45,0.89-2.58,2.08c-0.21-1.18-1.05-2.14-2.68-2.14
				c-1.66,0-2.81,1.18-2.81,2.62v0.02c0,0.04,0,0.07,0,0.11c-0.33-0.54-1.07-0.84-2.14-1.07c-1.28-0.27-1.45-0.4-1.45-0.81v-0.02
				c0-0.3,0.33-0.53,0.95-0.53c0.32,0,0.73,0.09,1.02,0.19V9.31c-0.27-0.05-0.68-0.1-1-0.1c-1.51,0-2.58,0.74-2.58,1.85v0.02
				c0,1.22,0.96,1.56,2.44,1.87c1.23,0.26,1.35,0.44,1.35,0.78v0.02c0,0.36-0.4,0.58-1.06,0.58c-0.84,0-1.4-0.29-2.07-0.74
				l-0.96,0.96c0.89,0.66,1.88,0.98,2.99,0.98c1.55,0,2.64-0.64,2.71-1.8c0.42,0.98,1.47,1.6,2.77,1.6c0.05,0,0.21-0.01,0.26-0.01
				v-1.15c-0.04,0-0.19,0.01-0.24,0.01c-0.72,0-1.23-0.34-1.39-0.98h3.88v2.04h1.63v-2.76c0.03-0.5,0.23-1.1,0.96-1.1
				c0.73,0,0.95,0.59,0.98,1.1v2.76h1.61v-1.1c0.19,0.76,0.98,1.17,1.91,1.17c0.79,0,1.33-0.25,1.72-0.64v0.58h1.56v-2.1
				c0.36,1.36,1.85,2.35,3.68,2.35c0.06,0,0.12,0,0.18,0V14.29z M72.54,1.01c-0.42-0.1-0.84-0.19-1.28-0.26
				c-0.02,0-0.03,0-0.05-0.01c-0.62,0.46-1.19,0.96-1.7,1.51c0.57-0.08,1.15-0.14,1.74-0.16c2.07-0.08,4.04,0.26,5.82,0.91
				C75.79,2.12,74.24,1.43,72.54,1.01 M75.23,13.44L75.23,13.44c-0.14,0.73-0.9,0.85-1.07,0.85c-1.23,0.06-1.27-0.77-0.86-1.03
				c0.55-0.34,1.93-0.15,1.93-0.15C75.24,13.17,75.25,13.29,75.23,13.44 M62.51,12.31c0.13-0.65,0.56-1.07,1.23-1.07
				c0.68,0,1.1,0.43,1.2,1.07H62.51z"/>
		</g>
		<g>
			<path class="st2" d="M5.53,12.83c0.46,0,0.74,0.28,0.81,0.69H4.7C4.78,13.1,5.08,12.83,5.53,12.83 M6.29,14.67
				c-0.36,0.1-0.52,0.11-0.73,0.1C5.14,14.75,4.8,14.52,4.7,14.1h2.56c0.01-0.09,0.01-0.14,0.01-0.23v-0.01
				c0-0.92-0.52-1.79-1.76-1.79c-1.07,0-1.8,0.78-1.8,1.73c0,1,0.72,1.7,1.8,1.7c0.16,0,0.4-0.01,0.79-0.1V14.67z"/>
			<path class="st2" d="M19.8,13.66c0-0.9-0.55-1.6-1.7-1.6c-1.16,0-1.71,0.7-1.71,1.6v1.76h1.07V13.6
				c0.02-0.33,0.15-0.73,0.63-0.73c0.48,0,0.62,0.39,0.64,0.73v1.82h1.06V13.66z"/>
			<path class="st2" d="M17.45,13.66c0-0.9-0.55-1.6-1.71-1.6c-1.16,0-1.71,0.7-1.71,1.6v1.76h1.07V13.6
				c0.02-0.33,0.15-0.73,0.63-0.73c0.48,0,0.62,0.39,0.64,0.73v1.82h1.06V13.66z"/>
			<polygon class="st2" points="1.43,11.83 1.43,12.7 3.37,12.7 3.37,13.6 1.43,13.6 1.43,15.42 0.36,15.42 0.36,10.93 3.84,10.93 
				3.84,11.83 			"/>
			<rect x="28.91" y="12.14" class="st2" width="1.07" height="3.29"/>
			<rect x="28.91" y="10.92" class="st2" width="1.07" height="0.73"/>
			<path class="st2" d="M10,14.76c-0.08,0.01-0.16,0.02-0.24,0.02c-0.67,0-1.21-0.45-1.21-1c0-0.55,0.54-1,1.21-1
				c0.08,0,0.16,0.01,0.24,0.02v-0.7c-0.14-0.02-0.3-0.03-0.46-0.03c-1.15,0-2.02,0.74-2.02,1.72c0,0.69,0.43,1.21,0.94,1.47
				c0.35,0.18,0.73,0.24,1.05,0.24c0.18,0,0.34-0.01,0.5-0.04V14.76z"/>
			<path class="st2" d="M11.92,14.73c-0.64,0-0.77-0.43-0.77-0.96c0-0.53,0.14-0.96,0.77-0.96c0.64,0,0.77,0.43,0.77,0.96
				C12.69,14.3,12.56,14.73,11.92,14.73 M11.92,12.05c-1,0-1.81,0.77-1.81,1.72s0.81,1.72,1.81,1.72c1,0,1.81-0.77,1.81-1.72
				S12.92,12.05,11.92,12.05"/>
			<path class="st2" d="M28.44,14.76c-0.08,0.01-0.16,0.02-0.24,0.02c-0.67,0-1.21-0.45-1.21-1c0-0.55,0.54-1,1.21-1
				c0.08,0,0.16,0.01,0.24,0.02v-0.7c-0.14-0.02-0.3-0.03-0.46-0.03c-1.15,0-2.02,0.74-2.02,1.72c0,0.69,0.43,1.21,0.94,1.47
				c0.36,0.18,0.73,0.24,1.05,0.24c0.18,0,0.34-0.01,0.5-0.04V14.76z"/>
			<path class="st2" d="M32.05,14.73c-0.64,0-0.77-0.43-0.77-0.96c0-0.53,0.14-0.96,0.77-0.96c0.64,0,0.77,0.43,0.77,0.96
				C32.83,14.3,32.69,14.73,32.05,14.73 M32.06,12.05c-1,0-1.81,0.77-1.81,1.72s0.81,1.72,1.81,1.72c1,0,1.81-0.77,1.81-1.72
				S33.05,12.05,32.06,12.05"/>
			<path class="st2" d="M25.99,12.04c0,0-0.16-0.01-0.28-0.01c-1.11,0-1.79,0.61-1.79,1.42v1.98H25l0-1.92
				c0-0.41,0.14-0.53,0.37-0.62c0.15-0.06,0.37-0.11,0.62-0.12V12.04z"/>
			<path class="st2" d="M21.87,12.83c0.46,0,0.74,0.28,0.81,0.69h-1.64C21.13,13.1,21.42,12.83,21.87,12.83 M22.64,14.67
				c-0.36,0.1-0.52,0.11-0.73,0.1c-0.42-0.02-0.77-0.26-0.87-0.68h2.56c0.01-0.09,0.01-0.14,0.01-0.23v-0.01
				c0-0.92-0.52-1.79-1.76-1.79c-1.07,0-1.8,0.78-1.8,1.73c0,1,0.72,1.7,1.8,1.7c0.16,0,0.4-0.01,0.79-0.1V14.67z"/>
			<polygon class="st2" points="21.39,11.66 22.14,10.54 23.02,10.9 22.17,11.66 			"/>
			<path class="st3" d="M44.89,5.18h-4.83c-1.06,0-2.14,0.57-2.64,0.93c-2.42,1.73-3.6,5.22-3.6,5.22c0.34-0.58,2.8-5.1,6.14-5.1
				h3.53c0,0,0.01,0.58-0.3,0.99C45.11,6.56,44.89,5.18,44.89,5.18"/>
			<path class="st3" d="M40.67,7.56c-0.01,0.12-0.03,0.45-0.19,0.74h0v0c1.58-0.14,2.34-0.61,2.7-1.08
				C42.57,7.43,41.76,7.56,40.67,7.56"/>
			<path class="st2" d="M39.53,8.35c0,0-0.34,0-0.97-0.02c-2.54-0.06-3.74,1.79-4.32,2.68c0.59-0.61,1.73-1.75,3.81-1.71
				c1.61,0.03,2.21-0.49,2.44-1C40.19,8.33,39.87,8.36,39.53,8.35"/>
			<path class="st3" d="M43.66,12.79c-0.87-0.2-1.11-0.31-1.11-0.71v-0.01c0-0.23,0.2-0.51,0.77-0.51c0.28,0,0.58,0.09,0.77,0.16
				v-0.79c-0.02,0-0.04-0.01-0.06-0.01c-0.19-0.04-0.46-0.1-0.69-0.1c-1.05,0-1.75,0.54-1.75,1.34v0.01c0,0.83,0.54,1.1,1.68,1.36
				c0.78,0.18,1.04,0.3,1.04,0.69v0.01c0,0.33-0.33,0.54-0.85,0.54c-0.58,0-0.99-0.2-1.47-0.55l-0.56,0.61
				c0.6,0.46,1.26,0.68,2.01,0.68c1.14,0,1.85-0.53,1.85-1.38v-0.01C45.26,13.43,44.83,13.07,43.66,12.79"/>
			<path class="st3" d="M38.45,12.88l-0.67-1c-0.3-0.44-0.89-0.91-1.68-0.95v4.5h0.87v-2.96v-0.38l0.22,0.31l1.35,1.89l1.36-1.91
				l0.22-0.31v0.38v2.98h0.88v-4.5h-1.03l-1.32,1.95l-0.1,0.15L38.45,12.88z"/>
		</g>
		<path class="st2" d="M50.93,12.37c0-0.33-0.27-0.6-0.6-0.6c-0.33,0-0.6,0.27-0.6,0.6c0,0.33,0.27,0.6,0.6,0.6
			C50.66,12.97,50.93,12.7,50.93,12.37"/>
	</g>
	<g>
		<g>
			<g>
				<g>
					<g>
						<g>
							<path class="st2" d="M27.43,21.87c0.28,0.06,0.49,0.14,0.62,0.24c0.13,0.1,0.2,0.24,0.2,0.42c0,0.1-0.02,0.2-0.06,0.28
								s-0.1,0.16-0.18,0.23c-0.08,0.07-0.17,0.12-0.27,0.15c-0.1,0.04-0.22,0.06-0.35,0.06c-0.32,0-0.6-0.08-0.85-0.24l0.2-0.18
								c0.1,0.06,0.2,0.1,0.31,0.13c0.1,0.03,0.22,0.04,0.35,0.04c0.08,0,0.16-0.01,0.23-0.04c0.07-0.03,0.13-0.06,0.18-0.1
								c0.05-0.04,0.09-0.09,0.11-0.15c0.03-0.06,0.04-0.11,0.04-0.17c0-0.06-0.01-0.1-0.03-0.15c-0.02-0.04-0.05-0.08-0.1-0.12
								c-0.05-0.04-0.12-0.07-0.2-0.1c-0.08-0.03-0.19-0.06-0.33-0.08c-0.15-0.03-0.27-0.06-0.38-0.09
								c-0.11-0.03-0.19-0.07-0.26-0.12c-0.07-0.05-0.12-0.1-0.15-0.17c-0.03-0.07-0.05-0.15-0.05-0.24c0-0.09,0.02-0.18,0.06-0.26
								c0.04-0.08,0.1-0.15,0.17-0.2c0.07-0.06,0.16-0.1,0.26-0.13c0.1-0.03,0.21-0.05,0.33-0.05c0.13,0,0.26,0.01,0.36,0.04
								c0.11,0.03,0.21,0.06,0.31,0.11v0.3c-0.11-0.08-0.22-0.13-0.33-0.17c-0.11-0.03-0.23-0.05-0.35-0.05
								c-0.17,0-0.3,0.04-0.39,0.11c-0.1,0.07-0.14,0.16-0.14,0.27c0,0.06,0.01,0.1,0.03,0.14c0.02,0.04,0.06,0.07,0.11,0.1
								c0.05,0.03,0.12,0.06,0.21,0.08C27.18,21.81,27.29,21.84,27.43,21.87"/>
							<path class="st2" d="M28.61,21.49h0.29v1.72h-0.29V21.49z M28.9,21.08h-0.29v-0.22h0.29V21.08z"/>
							<path class="st2" d="M29.98,22.23c0.07,0.02,0.14,0.04,0.22,0.07c0.07,0.03,0.14,0.06,0.19,0.09
								c0.06,0.04,0.1,0.08,0.14,0.14c0.04,0.05,0.05,0.12,0.05,0.19v0.01c0,0.08-0.02,0.15-0.05,0.22
								c-0.03,0.06-0.08,0.12-0.14,0.16c-0.06,0.04-0.13,0.08-0.21,0.1c-0.08,0.02-0.17,0.03-0.26,0.03c-0.11,0-0.22-0.01-0.33-0.04
								c-0.11-0.03-0.21-0.07-0.31-0.12v-0.27c0.1,0.07,0.21,0.12,0.32,0.16c0.11,0.04,0.22,0.06,0.33,0.06
								c0.11,0,0.2-0.02,0.28-0.07c0.07-0.05,0.11-0.11,0.11-0.2v-0.01c0-0.04-0.01-0.08-0.04-0.11c-0.03-0.03-0.06-0.06-0.1-0.08
								c-0.04-0.02-0.09-0.04-0.15-0.06c-0.06-0.02-0.12-0.03-0.18-0.05c-0.07-0.02-0.15-0.04-0.22-0.06
								c-0.07-0.02-0.14-0.05-0.2-0.09c-0.06-0.04-0.11-0.08-0.14-0.13c-0.04-0.05-0.05-0.12-0.05-0.2v-0.01
								c0-0.07,0.02-0.14,0.05-0.2c0.03-0.06,0.08-0.11,0.13-0.15c0.06-0.04,0.12-0.08,0.2-0.1c0.08-0.02,0.16-0.04,0.25-0.04
								c0.07,0,0.15,0.01,0.23,0.02c0.08,0.02,0.15,0.04,0.22,0.06v0.25c-0.15-0.07-0.31-0.11-0.46-0.11c-0.11,0-0.2,0.02-0.26,0.07
								c-0.06,0.05-0.1,0.11-0.1,0.18v0.01c0,0.04,0.01,0.07,0.04,0.1c0.03,0.03,0.06,0.06,0.11,0.08c0.05,0.02,0.1,0.04,0.15,0.06
								C29.86,22.2,29.92,22.22,29.98,22.23"/>
							<path class="st2" d="M31.77,23.21h-0.15c-0.19,0-0.33-0.05-0.43-0.15c-0.1-0.1-0.15-0.24-0.15-0.44v-1.43h0.29v0.31h0.44
								v0.22h-0.44v0.89c0,0.25,0.11,0.37,0.33,0.37h0.11V23.21z"/>
							<path class="st2" d="M32.92,21.68c-0.08,0-0.16,0.01-0.23,0.04c-0.07,0.03-0.13,0.07-0.19,0.12
								c-0.05,0.05-0.1,0.11-0.13,0.18c-0.03,0.07-0.06,0.15-0.06,0.23h1.2c-0.01-0.08-0.02-0.15-0.05-0.22
								c-0.03-0.07-0.07-0.13-0.12-0.19c-0.05-0.05-0.11-0.1-0.18-0.13C33.1,21.7,33.01,21.68,32.92,21.68 M33.52,23.1
								c-0.07,0.04-0.15,0.08-0.24,0.1c-0.09,0.03-0.19,0.04-0.31,0.04c-0.13,0-0.25-0.02-0.36-0.06c-0.11-0.04-0.21-0.1-0.3-0.18
								c-0.08-0.08-0.15-0.17-0.2-0.28c-0.05-0.11-0.07-0.23-0.07-0.36c0-0.12,0.02-0.24,0.07-0.35c0.05-0.11,0.11-0.2,0.19-0.28
								c0.08-0.08,0.17-0.14,0.28-0.19c0.11-0.05,0.23-0.07,0.36-0.07c0.14,0,0.26,0.02,0.37,0.07c0.11,0.05,0.2,0.11,0.27,0.19
								c0.07,0.08,0.13,0.18,0.17,0.29c0.04,0.11,0.06,0.23,0.06,0.35v0.04c0,0.01,0,0.03,0,0.04h-1.48
								c0.01,0.09,0.03,0.17,0.07,0.24c0.04,0.07,0.09,0.13,0.15,0.18c0.06,0.05,0.13,0.09,0.2,0.11c0.07,0.03,0.15,0.04,0.23,0.04
								c0.12,0,0.22-0.02,0.31-0.05c0.09-0.04,0.17-0.08,0.24-0.14V23.1z"/>
							<path class="st2" d="M36.26,21.46c0.11,0,0.22,0.02,0.32,0.06c0.1,0.04,0.19,0.1,0.26,0.17c0.07,0.07,0.13,0.16,0.18,0.26
								c0.04,0.1,0.06,0.2,0.06,0.32v0.94H36.8v-0.34h0v-0.6c0-0.07-0.01-0.14-0.03-0.22c-0.02-0.07-0.06-0.13-0.1-0.19
								c-0.05-0.05-0.1-0.1-0.17-0.13c-0.07-0.03-0.14-0.05-0.23-0.05c-0.09,0-0.17,0.02-0.23,0.05c-0.07,0.03-0.12,0.08-0.17,0.13
								c-0.05,0.05-0.08,0.12-0.1,0.19c-0.02,0.07-0.03,0.14-0.03,0.21v0v0.94h-0.28v-0.94v0c0-0.07-0.01-0.14-0.03-0.21
								c-0.02-0.07-0.06-0.13-0.1-0.19c-0.05-0.05-0.1-0.1-0.17-0.13c-0.07-0.03-0.14-0.05-0.23-0.05c-0.09,0-0.17,0.02-0.23,0.05
								c-0.07,0.03-0.12,0.08-0.17,0.13c-0.05,0.05-0.08,0.12-0.1,0.19c-0.02,0.07-0.03,0.14-0.03,0.22v0.6v0.34h-0.28v-0.94
								c0-0.11,0.02-0.22,0.06-0.32c0.04-0.1,0.1-0.18,0.18-0.26c0.07-0.07,0.16-0.13,0.26-0.17c0.1-0.04,0.21-0.06,0.32-0.06
								c0.14,0,0.27,0.03,0.39,0.1c0.12,0.07,0.21,0.15,0.29,0.26c0.07-0.11,0.17-0.19,0.29-0.26
								C35.98,21.49,36.11,21.46,36.26,21.46"/>
							<path class="st2" d="M38.87,22.4c-0.07-0.02-0.16-0.03-0.27-0.05c-0.11-0.02-0.22-0.02-0.34-0.02c-0.18,0-0.31,0.03-0.39,0.1
								c-0.08,0.06-0.13,0.15-0.13,0.27c0,0.11,0.04,0.2,0.13,0.26c0.08,0.06,0.19,0.09,0.31,0.09c0.09,0,0.17-0.01,0.25-0.03
								c0.08-0.02,0.16-0.06,0.22-0.1c0.06-0.04,0.12-0.09,0.15-0.15c0.04-0.06,0.06-0.12,0.06-0.19V22.4z M38.34,21.46
								c0.26,0,0.45,0.06,0.59,0.18c0.14,0.12,0.21,0.29,0.21,0.52v1.05h-0.27v-0.26c-0.03,0.04-0.08,0.08-0.13,0.11
								c-0.05,0.04-0.11,0.07-0.17,0.09c-0.06,0.03-0.13,0.05-0.21,0.07c-0.08,0.02-0.15,0.02-0.24,0.02
								c-0.09,0-0.17-0.01-0.25-0.03c-0.08-0.02-0.15-0.06-0.21-0.1c-0.06-0.05-0.11-0.1-0.15-0.17c-0.04-0.07-0.06-0.15-0.06-0.24
								c0-0.19,0.07-0.33,0.21-0.42c0.14-0.1,0.33-0.14,0.57-0.14c0.12,0,0.23,0.01,0.35,0.02c0.11,0.01,0.21,0.03,0.29,0.05v-0.05
								c0-0.16-0.05-0.28-0.15-0.36c-0.1-0.08-0.23-0.12-0.41-0.12c-0.11,0-0.21,0.01-0.3,0.04c-0.09,0.02-0.18,0.06-0.26,0.09
								v-0.24c0.09-0.04,0.18-0.06,0.28-0.08C38.11,21.47,38.22,21.46,38.34,21.46"/>
							<path class="st2" d="M41.86,23.24c-0.06,0.01-0.13,0.01-0.2,0.01c-0.18,0-0.35-0.03-0.51-0.09c-0.16-0.06-0.29-0.15-0.4-0.25
								c-0.11-0.11-0.2-0.23-0.27-0.38c-0.06-0.14-0.1-0.3-0.1-0.47c0-0.17,0.03-0.32,0.1-0.47c0.06-0.15,0.15-0.27,0.27-0.38
								c0.11-0.11,0.25-0.19,0.4-0.26c0.16-0.06,0.33-0.09,0.52-0.09c0.06,0,0.13,0,0.19,0.01v0.24c-0.03,0-0.06-0.01-0.09-0.01
								c-0.03,0-0.06,0-0.1,0c-0.14,0-0.27,0.02-0.39,0.07c-0.12,0.05-0.22,0.12-0.31,0.2c-0.09,0.09-0.16,0.19-0.2,0.3
								c-0.05,0.12-0.07,0.24-0.07,0.38c0,0.13,0.02,0.26,0.07,0.38c0.05,0.12,0.12,0.22,0.21,0.31c0.09,0.09,0.19,0.15,0.31,0.2
								c0.12,0.05,0.25,0.07,0.39,0.07c0.03,0,0.07,0,0.1,0c0.03,0,0.06-0.01,0.09-0.01V23.24z"/>
							<path class="st2" d="M42.9,21.69c-0.1,0-0.19,0.02-0.27,0.05c-0.08,0.03-0.15,0.08-0.21,0.14c-0.06,0.06-0.1,0.13-0.13,0.21
								c-0.03,0.08-0.04,0.17-0.04,0.26c0,0.09,0.02,0.18,0.05,0.26c0.03,0.08,0.08,0.15,0.14,0.21c0.06,0.06,0.13,0.11,0.21,0.14
								c0.08,0.04,0.17,0.05,0.27,0.05c0.1,0,0.19-0.02,0.27-0.05c0.08-0.03,0.15-0.08,0.21-0.14c0.06-0.06,0.1-0.13,0.13-0.21
								c0.03-0.08,0.05-0.17,0.05-0.26c0-0.09-0.02-0.18-0.05-0.26c-0.03-0.08-0.08-0.15-0.14-0.21c-0.06-0.06-0.13-0.11-0.21-0.14
								C43.09,21.7,43,21.69,42.9,21.69 M42.91,23.25c-0.14,0-0.27-0.02-0.39-0.07c-0.12-0.05-0.22-0.11-0.31-0.19
								c-0.09-0.08-0.15-0.17-0.2-0.28c-0.05-0.11-0.07-0.22-0.07-0.35c0-0.12,0.02-0.24,0.07-0.35c0.05-0.11,0.12-0.2,0.2-0.29
								c0.09-0.08,0.19-0.15,0.31-0.19c0.12-0.05,0.25-0.07,0.39-0.07c0.14,0,0.27,0.02,0.39,0.07c0.12,0.05,0.22,0.11,0.31,0.19
								c0.09,0.08,0.15,0.17,0.2,0.28c0.05,0.11,0.07,0.22,0.07,0.34c0,0.12-0.02,0.24-0.07,0.35c-0.05,0.11-0.12,0.2-0.2,0.29
								c-0.09,0.08-0.19,0.15-0.31,0.19C43.18,23.23,43.05,23.25,42.91,23.25"/>
							<path class="st2" d="M46.3,21.46c0.11,0,0.22,0.02,0.32,0.06c0.1,0.04,0.19,0.1,0.26,0.17c0.07,0.07,0.13,0.16,0.18,0.26
								c0.04,0.1,0.06,0.2,0.06,0.32v0.94h-0.28v-0.34h0v-0.6c0-0.07-0.01-0.14-0.03-0.22c-0.02-0.07-0.06-0.13-0.1-0.19
								c-0.05-0.05-0.1-0.1-0.17-0.13c-0.07-0.03-0.14-0.05-0.23-0.05c-0.09,0-0.17,0.02-0.23,0.05c-0.07,0.03-0.12,0.08-0.17,0.13
								c-0.05,0.05-0.08,0.12-0.1,0.19c-0.02,0.07-0.03,0.14-0.03,0.21v0v0.94h-0.28v-0.94v0c0-0.07-0.01-0.14-0.03-0.21
								c-0.02-0.07-0.06-0.13-0.1-0.19c-0.05-0.05-0.1-0.1-0.17-0.13c-0.07-0.03-0.14-0.05-0.23-0.05c-0.09,0-0.17,0.02-0.23,0.05
								c-0.07,0.03-0.12,0.08-0.17,0.13c-0.05,0.05-0.08,0.12-0.1,0.19c-0.02,0.07-0.03,0.14-0.03,0.22v0.6v0.34h-0.28v-0.94
								c0-0.11,0.02-0.22,0.06-0.32c0.04-0.1,0.1-0.18,0.18-0.26c0.07-0.07,0.16-0.13,0.26-0.17c0.1-0.04,0.21-0.06,0.32-0.06
								c0.14,0,0.27,0.03,0.39,0.1c0.12,0.07,0.21,0.15,0.29,0.26c0.07-0.11,0.17-0.19,0.29-0.26
								C46.03,21.49,46.16,21.46,46.3,21.46"/>
							<path class="st2" d="M48.25,21.24l0.31-0.4h0.35l-0.45,0.4H48.25z M48.4,21.68c-0.08,0-0.16,0.01-0.23,0.04
								c-0.07,0.03-0.13,0.07-0.19,0.12c-0.05,0.05-0.1,0.11-0.13,0.18c-0.03,0.07-0.06,0.15-0.06,0.23H49
								c-0.01-0.08-0.02-0.15-0.05-0.22c-0.03-0.07-0.07-0.13-0.12-0.19c-0.05-0.05-0.11-0.1-0.18-0.13
								C48.58,21.7,48.5,21.68,48.4,21.68 M49,23.1c-0.07,0.04-0.15,0.08-0.24,0.1c-0.09,0.03-0.19,0.04-0.31,0.04
								c-0.13,0-0.25-0.02-0.36-0.06c-0.11-0.04-0.21-0.1-0.3-0.18c-0.08-0.08-0.15-0.17-0.2-0.28c-0.05-0.11-0.07-0.23-0.07-0.36
								c0-0.12,0.02-0.24,0.07-0.35c0.05-0.11,0.11-0.2,0.19-0.28c0.08-0.08,0.17-0.14,0.28-0.19c0.11-0.05,0.23-0.07,0.36-0.07
								c0.14,0,0.26,0.02,0.37,0.07c0.11,0.05,0.2,0.11,0.27,0.19c0.07,0.08,0.13,0.18,0.17,0.29c0.04,0.11,0.06,0.23,0.06,0.35
								v0.04c0,0.01,0,0.03,0,0.04h-1.48c0.01,0.09,0.03,0.17,0.07,0.24c0.04,0.07,0.09,0.13,0.15,0.18
								c0.06,0.05,0.13,0.09,0.2,0.11c0.07,0.03,0.15,0.04,0.23,0.04c0.12,0,0.22-0.02,0.31-0.05c0.09-0.04,0.17-0.08,0.24-0.14
								V23.1z"/>
							<path class="st2" d="M50.44,21.47v0.25h-0.1c-0.07,0-0.14,0.01-0.21,0.04c-0.07,0.03-0.12,0.07-0.17,0.12
								c-0.05,0.05-0.09,0.11-0.12,0.18c-0.03,0.07-0.04,0.14-0.04,0.21v0.6v0.33h-0.28v-0.94c0-0.11,0.02-0.21,0.06-0.31
								c0.04-0.1,0.1-0.18,0.18-0.26c0.07-0.07,0.16-0.13,0.26-0.17c0.1-0.04,0.2-0.06,0.32-0.06H50.44z"/>
							<path class="st2" d="M51.66,23.24c-0.05,0.01-0.1,0.01-0.16,0.01c-0.15,0-0.28-0.02-0.41-0.07
								c-0.13-0.05-0.23-0.11-0.33-0.19c-0.09-0.08-0.16-0.17-0.21-0.28c-0.05-0.11-0.08-0.22-0.08-0.34c0-0.12,0.03-0.24,0.08-0.35
								c0.05-0.11,0.12-0.2,0.21-0.29c0.09-0.08,0.2-0.15,0.33-0.2c0.13-0.05,0.26-0.07,0.41-0.07c0.06,0,0.11,0,0.16,0.01v0.23
								c-0.06-0.01-0.11-0.02-0.16-0.02c-0.1,0-0.2,0.02-0.28,0.05c-0.09,0.03-0.16,0.08-0.23,0.14c-0.06,0.06-0.11,0.13-0.15,0.21
								c-0.04,0.08-0.05,0.17-0.05,0.26c0,0.09,0.02,0.18,0.06,0.26c0.04,0.08,0.09,0.15,0.15,0.21c0.07,0.06,0.14,0.11,0.23,0.14
								c0.09,0.03,0.19,0.05,0.29,0.05c0.05,0,0.1,0,0.14-0.01V23.24z"/>
							<path class="st2" d="M52.03,21.49h0.29v1.72h-0.29V21.49z M52.32,21.08h-0.29v-0.22h0.29V21.08z"/>
							<path class="st2" d="M53.55,21.69c-0.1,0-0.19,0.02-0.27,0.05c-0.08,0.03-0.15,0.08-0.21,0.14c-0.06,0.06-0.1,0.13-0.13,0.21
								c-0.03,0.08-0.04,0.17-0.04,0.26c0,0.09,0.02,0.18,0.05,0.26c0.03,0.08,0.08,0.15,0.14,0.21c0.06,0.06,0.13,0.11,0.21,0.14
								c0.08,0.04,0.17,0.05,0.27,0.05c0.1,0,0.19-0.02,0.27-0.05c0.08-0.03,0.15-0.08,0.21-0.14c0.06-0.06,0.1-0.13,0.13-0.21
								c0.03-0.08,0.05-0.17,0.05-0.26c0-0.09-0.02-0.18-0.05-0.26c-0.03-0.08-0.08-0.15-0.14-0.21c-0.06-0.06-0.13-0.11-0.21-0.14
								C53.74,21.7,53.65,21.69,53.55,21.69 M53.55,23.25c-0.14,0-0.27-0.02-0.39-0.07c-0.12-0.05-0.22-0.11-0.31-0.19
								c-0.09-0.08-0.15-0.17-0.2-0.28c-0.05-0.11-0.07-0.22-0.07-0.35c0-0.12,0.02-0.24,0.07-0.35c0.05-0.11,0.12-0.2,0.2-0.29
								c0.09-0.08,0.19-0.15,0.31-0.19c0.12-0.05,0.25-0.07,0.39-0.07c0.14,0,0.27,0.02,0.39,0.07c0.12,0.05,0.22,0.11,0.31,0.19
								c0.09,0.08,0.15,0.17,0.2,0.28c0.05,0.11,0.07,0.22,0.07,0.34c0,0.12-0.02,0.24-0.07,0.35c-0.05,0.11-0.12,0.2-0.2,0.29
								c-0.09,0.08-0.19,0.15-0.31,0.19C53.82,23.23,53.69,23.25,53.55,23.25"/>
						</g>
					</g>
				</g>
			</g>
		</g>
	</g>
	<rect x="0.36" y="22.27" class="st2" width="23.35" height="0.17"/>
	<rect x="57.28" y="22.27" class="st2" width="23.35" height="0.17"/>
</g>
</svg>
